<svg width="30" height="30" viewBox="0 0 30 30" fill="none" xmlns="http://www.w3.org/2000/svg">
<path d="M16.6667 5C16.6667 5.44203 16.4911 5.86595 16.1785 6.17851C15.8659 6.49107 15.442 6.66667 15 6.66667C14.558 6.66667 14.134 6.49107 13.8215 6.17851C13.5089 5.86595 13.3333 5.44203 13.3333 5V1.66667C13.3333 1.22464 13.5089 0.800716 13.8215 0.488155C14.134 0.175595 14.558 0 15 0C15.442 0 15.8659 0.175595 16.1785 0.488155C16.4911 0.800716 16.6667 1.22464 16.6667 1.66667V5ZM16.6667 28.3333C16.6667 28.7754 16.4911 29.1993 16.1785 29.5118C15.8659 29.8244 15.442 30 15 30C14.558 30 14.134 29.8244 13.8215 29.5118C13.5089 29.1993 13.3333 28.7754 13.3333 28.3333V25C13.3333 24.558 13.5089 24.134 13.8215 23.8215C14.134 23.5089 14.558 23.3333 15 23.3333C15.442 23.3333 15.8659 23.5089 16.1785 23.8215C16.4911 24.134 16.6667 24.558 16.6667 25V28.3333ZM5 13.3333C5.44203 13.3333 5.86595 13.5089 6.17851 13.8215C6.49107 14.134 6.66667 14.558 6.66667 15C6.66667 15.442 6.49107 15.8659 6.17851 16.1785C5.86595 16.4911 5.44203 16.6667 5 16.6667H1.66667C1.22464 16.6667 0.800716 16.4911 0.488155 16.1785C0.175595 15.8659 0 15.442 0 15C0 14.558 0.175595 14.134 0.488155 13.8215C0.800716 13.5089 1.22464 13.3333 1.66667 13.3333H5ZM28.3333 13.3333C28.7754 13.3333 29.1993 13.5089 29.5118 13.8215C29.8244 14.134 30 14.558 30 15C30 15.442 29.8244 15.8659 29.5118 16.1785C29.1993 16.4911 28.7754 16.6667 28.3333 16.6667H25C24.558 16.6667 24.134 16.4911 23.8215 16.1785C23.5089 15.8659 23.3333 15.442 23.3333 15C23.3333 14.558 23.5089 14.134 23.8215 13.8215C24.134 13.5089 24.558 13.3333 25 13.3333H28.3333ZM6.75083 20.8925C7.06517 20.5889 7.48617 20.4209 7.92317 20.4247C8.36016 20.4285 8.77818 20.6038 9.0872 20.9128C9.39621 21.2218 9.57149 21.6398 9.57529 22.0768C9.57909 22.5138 9.4111 22.9348 9.1075 23.2492L6.75083 25.6067C6.59709 25.7659 6.41318 25.8928 6.20984 25.9802C6.0065 26.0675 5.7878 26.1135 5.5665 26.1154C5.3452 26.1173 5.12574 26.0752 4.92091 25.9914C4.71608 25.9076 4.53 25.7838 4.37351 25.6273C4.21702 25.4708 4.09327 25.2847 4.00946 25.0799C3.92566 24.8751 3.88349 24.6556 3.88542 24.4343C3.88734 24.213 3.93332 23.9943 4.02066 23.791C4.10801 23.5877 4.23498 23.4037 4.39417 23.25L6.75083 20.8925ZM23.2492 4.39333C23.5618 4.08082 23.9858 3.9053 24.4278 3.90537C24.8698 3.90545 25.2937 4.08113 25.6063 4.39375C25.9188 4.70637 26.0943 5.13034 26.0942 5.57238C26.0941 6.01442 25.9185 6.43832 25.6058 6.75083L23.2492 9.1075C23.0944 9.26224 22.9106 9.38498 22.7084 9.4687C22.5062 9.55243 22.2894 9.5955 22.0705 9.59546C21.8517 9.59542 21.6349 9.55227 21.4327 9.46848C21.2305 9.38468 21.0468 9.26188 20.8921 9.10708C20.7373 8.95229 20.6146 8.76853 20.5309 8.5663C20.4472 8.36407 20.4041 8.14733 20.4041 7.92846C20.4042 7.70958 20.4473 7.49286 20.5311 7.29066C20.6149 7.08846 20.7377 6.90474 20.8925 6.75L23.2492 4.39333ZM20.8925 23.2492C20.5889 22.9348 20.4209 22.5138 20.4247 22.0768C20.4285 21.6398 20.6038 21.2218 20.9128 20.9128C21.2218 20.6038 21.6398 20.4285 22.0768 20.4247C22.5138 20.4209 22.9348 20.5889 23.2492 20.8925L25.6067 23.2492C25.7659 23.4029 25.8928 23.5868 25.9802 23.7902C26.0675 23.9935 26.1135 24.2122 26.1154 24.4335C26.1173 24.6548 26.0752 24.8743 25.9914 25.0791C25.9076 25.2839 25.7838 25.47 25.6273 25.6265C25.4708 25.783 25.2847 25.9067 25.0799 25.9905C24.8751 26.0743 24.6556 26.1165 24.4343 26.1146C24.213 26.1127 23.9943 26.0667 23.791 25.9793C23.5877 25.892 23.4037 25.765 23.25 25.6058L20.8925 23.2492ZM15 7.5C13.0109 7.5 11.1032 8.29018 9.6967 9.6967C8.29018 11.1032 7.5 13.0109 7.5 15C7.5 16.9891 8.29018 18.8968 9.6967 20.3033C11.1032 21.7098 13.0109 22.5 15 22.5C16.9891 22.5 18.8968 21.7098 20.3033 20.3033C21.7098 18.8968 22.5 16.9891 22.5 15C22.5 13.0109 21.7098 11.1032 20.3033 9.6967C18.8968 8.29018 16.9891 7.5 15 7.5ZM15 19.1667C13.8949 19.1667 12.8351 18.7277 12.0537 17.9463C11.2723 17.1649 10.8333 16.1051 10.8333 15C10.8333 13.8949 11.2723 12.8351 12.0537 12.0537C12.8351 11.2723 13.8949 10.8333 15 10.8333C16.1051 10.8333 17.1649 11.2723 17.9463 12.0537C18.7277 12.8351 19.1667 13.8949 19.1667 15C19.1667 16.1051 18.7277 17.1649 17.9463 17.9463C17.1649 18.7277 16.1051 19.1667 15 19.1667ZM4.39333 6.75083C4.08082 6.43821 3.9053 6.01424 3.90537 5.57221C3.90545 5.13017 4.08113 4.70626 4.39375 4.39375C4.70637 4.08124 5.13034 3.90571 5.57238 3.90579C6.01442 3.90587 6.43832 4.08154 6.75083 4.39417L9.1075 6.75083C9.26224 6.90563 9.38498 7.08939 9.4687 7.29162C9.55243 7.49385 9.5955 7.71059 9.59546 7.92946C9.59542 8.14834 9.55227 8.36506 9.46848 8.56726C9.38468 8.76946 9.26188 8.95318 9.10708 9.10792C8.95229 9.26266 8.76853 9.38539 8.5663 9.46912C8.36407 9.55284 8.14733 9.59591 7.92846 9.59588C7.70958 9.59584 7.49286 9.55269 7.29066 9.46889C7.08846 9.3851 6.90474 9.2623 6.75 9.1075L4.39333 6.75083Z" fill="#FFAC33"/>
</svg>
