<svg width="30" height="30" viewBox="0 0 30 30" fill="none" xmlns="http://www.w3.org/2000/svg">
<path d="M7.58216 17.1515C7.53338 17.1309 7.48019 17.1228 7.42748 17.1281C7.12513 17.1492 5.54076 18.5601 5.12592 19.5797C4.84232 20.2734 5.17982 21.0703 5.87357 21.3515C6.20769 21.4872 6.58202 21.4847 6.91428 21.3445C7.24654 21.2043 7.50953 20.9379 7.64545 20.6039C7.95951 19.8328 8.04623 17.339 7.58216 17.1515ZM11.365 25.5398C11.3158 25.5211 11.2642 25.5117 11.2126 25.5164C10.9103 25.5375 9.32591 26.9484 8.91107 27.9679C8.62982 28.6617 8.96498 29.4562 9.65873 29.7398C10.3525 30.0211 11.1494 29.6859 11.4306 28.9922C11.7423 28.2211 11.829 25.7297 11.365 25.5398ZM24.1009 16.3476C24.0517 16.3265 24.0001 16.3195 23.9486 16.3218C23.6462 16.3429 22.0619 17.7562 21.647 18.7757C21.3658 19.4695 21.7009 20.264 22.3947 20.5476C23.0908 20.8289 23.8853 20.4937 24.1665 19.8C24.4806 19.0289 24.565 16.5375 24.1009 16.3476ZM20.1634 22.1297C20.1142 22.1109 20.0626 22.1015 20.0087 22.1062C19.7064 22.1273 18.122 23.5382 17.7072 24.5578C17.4259 25.2515 17.7611 26.0484 18.4548 26.3297C19.1486 26.6132 19.9454 26.2757 20.2267 25.582C20.5431 24.8109 20.6275 22.3195 20.1634 22.1297Z" fill="#95C8EC"/>
<path d="M7.58216 17.1515C7.53338 17.1309 7.48019 17.1228 7.42748 17.1281C7.12513 17.1492 5.54076 18.5601 5.12592 19.5797C4.84232 20.2734 5.17982 21.0703 5.87357 21.3515C6.20769 21.4872 6.58202 21.4847 6.91428 21.3445C7.24654 21.2043 7.50953 20.9379 7.64545 20.6039C7.95951 19.8328 8.04623 17.339 7.58216 17.1515ZM11.365 25.5398C11.3158 25.5211 11.2642 25.5117 11.2126 25.5164C10.9103 25.5375 9.32591 26.9484 8.91107 27.9679C8.62982 28.6617 8.96498 29.4562 9.65873 29.7398C10.3525 30.0211 11.1494 29.6859 11.4306 28.9922C11.7423 28.2211 11.829 25.7297 11.365 25.5398ZM24.1009 16.3476C24.0517 16.3265 24.0001 16.3195 23.9486 16.3218C23.6462 16.3429 22.0619 17.7562 21.647 18.7757C21.3658 19.4695 21.7009 20.264 22.3947 20.5476C23.0908 20.8289 23.8853 20.4937 24.1665 19.8C24.4806 19.0289 24.565 16.5375 24.1009 16.3476ZM20.1634 22.1297C20.1142 22.1109 20.0626 22.1015 20.0087 22.1062C19.7064 22.1273 18.122 23.5382 17.7072 24.5578C17.4259 25.2515 17.7611 26.0484 18.4548 26.3297C19.1486 26.6132 19.9454 26.2757 20.2267 25.582C20.5431 24.8109 20.6275 22.3195 20.1634 22.1297Z" fill="#70B2E2"/>
<path d="M14.5429 14.5593C14.5429 14.5593 10.5023 20.1187 11.1351 20.4796C11.5664 20.7257 14.5312 20.6882 14.9109 20.9273C15.2906 21.1687 13.1461 24.675 13.1719 24.8156C13.2047 24.989 13.4601 25.3101 14.9344 24.1968C17.2172 22.4742 18.6609 20.4726 18.6609 20.4726C18.6609 20.4726 20.0062 19.3195 15.7054 18.8882C15.307 18.4945 19.0476 15.1335 19.0476 15.1335L14.5429 14.5593Z" fill="#F8B618"/>
<path d="M14.5429 14.5593C14.5429 14.5593 10.5023 20.1187 11.1351 20.4796C11.5664 20.7257 14.5312 20.6882 14.9109 20.9273C15.2906 21.1687 13.1461 24.675 13.1719 24.8156C13.2047 24.989 13.4601 25.3101 14.9344 24.1968C17.2172 22.4742 18.6609 20.4726 18.6609 20.4726C18.6609 20.4726 20.0062 19.3195 15.7054 18.8882C15.307 18.4945 19.0476 15.1335 19.0476 15.1335L14.5429 14.5593Z" fill="#FFCB28"/>
<path d="M24.258 6.48052C24.2556 6.46645 24.258 6.45239 24.258 6.43833C24.258 4.51177 22.697 2.95083 20.7705 2.95083C20.522 2.95083 20.2806 2.97661 20.0486 3.02583C19.3572 1.34302 17.7048 0.159424 15.7736 0.159424C14.3228 0.159424 13.0314 0.827393 12.183 1.8727C11.6211 1.58641 10.9995 1.43703 10.3689 1.43677C8.28297 1.43677 6.56735 3.02583 6.36813 5.06255C4.09704 5.18208 2.27594 7.04302 2.24547 9.35161C2.21501 11.7563 4.13922 13.7321 6.54391 13.7625C6.73141 13.7649 6.91422 13.7508 7.09469 13.7321C8.02282 15.6915 10.0197 17.0461 12.333 17.0461C13.7275 17.0461 15.0072 16.5516 16.008 15.7313C16.772 16.2985 17.7166 16.636 18.7408 16.636C20.8431 16.636 22.6103 15.225 23.1611 13.3008C23.508 13.4157 23.8759 13.479 24.2627 13.479C26.1963 13.479 27.7619 11.9133 27.7619 9.97974C27.7572 8.04849 26.1916 6.48052 24.258 6.48052Z" fill="#E3EBEE"/>
<path d="M26.3134 7.14844C27.1056 7.94766 26.5454 9.78516 25.9993 10.3828C24.9259 11.5594 22.9571 11.2852 22.1673 11.1141C21.954 11.0672 21.9188 11.0836 21.8485 11.1258C21.7853 11.1633 21.7571 11.2242 21.6892 11.3695C21.4337 11.918 20.7774 12.982 19.3899 13.4086C17.9438 13.8539 16.5821 13.1766 15.9423 12.7687C15.7009 12.6141 15.6892 12.6117 15.5813 12.6117C15.4712 12.6117 15.361 12.6937 15.2298 12.7969C14.6532 13.2516 13.336 14.0508 11.304 13.9336C9.31182 13.8187 8.17275 12.5906 7.78369 11.9602C7.70869 11.8383 7.62666 11.7375 7.5376 11.7281C7.43213 11.7164 7.3126 11.8266 7.22353 11.9156C6.3751 12.7406 3.71025 12.9891 2.82666 11.5828C3.72432 13.0242 5.11416 13.7391 6.5415 13.7578C6.729 13.7602 6.91182 13.7461 7.09229 13.7273C8.02041 15.6867 10.0173 17.0414 12.3306 17.0414C13.7251 17.0414 15.0048 16.5469 16.0056 15.7266C16.7696 16.2937 17.7142 16.6312 18.7384 16.6312C20.8407 16.6312 22.6079 15.2203 23.1587 13.2961C23.5056 13.4109 23.8735 13.4742 24.2603 13.4742C26.1938 13.4742 27.7595 11.9086 27.7595 9.975C27.7571 8.95078 27.2392 7.79062 26.3134 7.14844Z" fill="#B9CDD2"/>
</svg>
