<svg width="30" height="30" viewBox="0 0 30 30" fill="none" xmlns="http://www.w3.org/2000/svg">
<path d="M7.58216 17.1514C7.53338 17.1308 7.48019 17.1227 7.42748 17.128C7.12513 17.1491 5.54076 18.56 5.12592 19.5795C4.84232 20.2733 5.17982 21.0702 5.87357 21.3514C6.20769 21.4871 6.58202 21.4846 6.91428 21.3444C7.24654 21.2042 7.50953 20.9378 7.64545 20.6038C7.95951 19.8327 8.04623 17.3389 7.58216 17.1514M11.365 25.5397C11.3158 25.5209 11.2642 25.5116 11.2126 25.5163C10.9103 25.5373 9.32591 26.9483 8.91107 27.9678C8.62982 28.6616 8.96498 29.4561 9.65873 29.7397C10.3525 30.0209 11.1494 29.6858 11.4306 28.992C11.7423 28.2209 11.829 25.7295 11.365 25.5397M24.1009 16.3475C24.0517 16.3264 24.0001 16.3194 23.9486 16.3217C23.6462 16.3428 22.0619 17.7561 21.647 18.7756C21.3658 19.4694 21.7009 20.2639 22.3947 20.5475C23.0908 20.8288 23.8853 20.4936 24.1665 19.7998C24.4806 19.0288 24.565 16.5373 24.1009 16.3475ZM20.1634 22.1295C20.1142 22.1108 20.0626 22.1014 20.0087 22.1061C19.7064 22.1272 18.122 23.5381 17.7072 24.5577C17.4259 25.2514 17.7611 26.0483 18.4548 26.3295C19.1486 26.6131 19.9454 26.2756 20.2267 25.5819C20.5431 24.8108 20.6275 22.3194 20.1634 22.1295" fill="#95C8EC"/>
<path d="M7.58216 17.1514C7.53338 17.1308 7.48019 17.1227 7.42748 17.128C7.12513 17.1491 5.54076 18.56 5.12592 19.5795C4.84232 20.2733 5.17982 21.0702 5.87357 21.3514C6.20769 21.4871 6.58202 21.4846 6.91428 21.3444C7.24654 21.2042 7.50953 20.9378 7.64545 20.6038C7.95951 19.8327 8.04623 17.3389 7.58216 17.1514M11.365 25.5397C11.3158 25.5209 11.2642 25.5116 11.2126 25.5163C10.9103 25.5373 9.32591 26.9483 8.91107 27.9678C8.62982 28.6616 8.96498 29.4561 9.65873 29.7397C10.3525 30.0209 11.1494 29.6858 11.4306 28.992C11.7423 28.2209 11.829 25.7295 11.365 25.5397M24.1009 16.3475C24.0517 16.3264 24.0001 16.3194 23.9486 16.3217C23.6462 16.3428 22.0619 17.7561 21.647 18.7756C21.3658 19.4694 21.7009 20.2639 22.3947 20.5475C23.0908 20.8288 23.8853 20.4936 24.1665 19.7998C24.4806 19.0288 24.565 16.5373 24.1009 16.3475ZM20.1634 22.1295C20.1142 22.1108 20.0626 22.1014 20.0087 22.1061C19.7064 22.1272 18.122 23.5381 17.7072 24.5577C17.4259 25.2514 17.7611 26.0483 18.4548 26.3295C19.1486 26.6131 19.9454 26.2756 20.2267 25.5819C20.5431 24.8108 20.6275 22.3194 20.1634 22.1295" fill="#70B2E2"/>
<path d="M14.5429 14.5596C14.5429 14.5596 10.5023 20.1189 11.1351 20.4799C11.5664 20.726 14.5312 20.6885 14.9109 20.9275C15.2906 21.1689 13.1461 24.6752 13.1719 24.8158C13.2047 24.9893 13.4601 25.3104 14.9344 24.1971C17.2172 22.4744 18.6609 20.4729 18.6609 20.4729C18.6609 20.4729 20.0062 19.3197 15.7054 18.8885C15.307 18.4947 19.0476 15.1338 19.0476 15.1338L14.5429 14.5596V14.5596Z" fill="#F8B618"/>
<path d="M14.5429 14.5596C14.5429 14.5596 10.5023 20.1189 11.1351 20.4799C11.5664 20.726 14.5312 20.6885 14.9109 20.9275C15.2906 21.1689 13.1461 24.6752 13.1719 24.8158C13.2047 24.9893 13.4601 25.3104 14.9344 24.1971C17.2172 22.4744 18.6609 20.4729 18.6609 20.4729C18.6609 20.4729 20.0062 19.3197 15.7054 18.8885C15.307 18.4947 19.0476 15.1338 19.0476 15.1338L14.5429 14.5596V14.5596Z" fill="#FFCB28"/>
<path d="M24.258 6.48027C24.2556 6.46621 24.258 6.45215 24.258 6.43809C24.258 4.51152 22.697 2.95059 20.7705 2.95059C20.522 2.95059 20.2806 2.97637 20.0486 3.02559C19.3572 1.34277 17.7048 0.15918 15.7736 0.15918C14.3228 0.15918 13.0314 0.827148 12.183 1.87246C11.6211 1.58616 10.9995 1.43679 10.3689 1.43652C8.28297 1.43652 6.56735 3.02559 6.36813 5.0623C4.09704 5.18184 2.27594 7.04277 2.24547 9.35137C2.21501 11.7561 4.13922 13.7318 6.54391 13.7623C6.73141 13.7646 6.91422 13.7506 7.09469 13.7318C8.02282 15.6912 10.0197 17.0459 12.333 17.0459C13.7275 17.0459 15.0072 16.5514 16.008 15.7311C16.772 16.2982 17.7166 16.6357 18.7408 16.6357C20.8431 16.6357 22.6103 15.2248 23.1611 13.3006C23.508 13.4154 23.8759 13.4787 24.2627 13.4787C26.1963 13.4787 27.7619 11.9131 27.7619 9.97949C27.7572 8.04824 26.1916 6.48027 24.258 6.48027V6.48027Z" fill="#E3EBEE"/>
<path d="M26.3134 7.14844C27.1056 7.94766 26.5454 9.78516 25.9993 10.3828C24.9259 11.5594 22.9571 11.2852 22.1673 11.1141C21.954 11.0672 21.9188 11.0836 21.8485 11.1258C21.7853 11.1633 21.7571 11.2242 21.6892 11.3695C21.4337 11.918 20.7774 12.982 19.3899 13.4086C17.9438 13.8539 16.5821 13.1766 15.9423 12.7687C15.7009 12.6141 15.6892 12.6117 15.5813 12.6117C15.4712 12.6117 15.361 12.6937 15.2298 12.7969C14.6532 13.2516 13.336 14.0508 11.304 13.9336C9.31182 13.8187 8.17275 12.5906 7.78369 11.9602C7.70869 11.8383 7.62666 11.7375 7.5376 11.7281C7.43213 11.7164 7.3126 11.8266 7.22353 11.9156C6.3751 12.7406 3.71025 12.9891 2.82666 11.5828C3.72432 13.0242 5.11416 13.7391 6.5415 13.7578C6.729 13.7602 6.91182 13.7461 7.09229 13.7273C8.02041 15.6867 10.0173 17.0414 12.3306 17.0414C13.7251 17.0414 15.0048 16.5469 16.0056 15.7266C16.7696 16.2937 17.7142 16.6312 18.7384 16.6312C20.8407 16.6312 22.6079 15.2203 23.1587 13.2961C23.5056 13.4109 23.8735 13.4742 24.2603 13.4742C26.1938 13.4742 27.7595 11.9086 27.7595 9.975C27.7571 8.95078 27.2392 7.79062 26.3134 7.14844V7.14844Z" fill="#B9CDD2"/>
</svg>
