<svg width="30" height="30" viewBox="0 0 30 30" fill="none" xmlns="http://www.w3.org/2000/svg">
<path d="M28.9604 14.2738H25.5446L27.6238 12.1703C27.9208 11.8698 27.9208 11.419 27.6238 11.1185C27.3267 10.818 26.8812 10.818 26.5842 11.1185L23.4653 14.2738H21.1386L22.3762 13.0217C22.6733 12.7212 22.6733 12.2705 22.3762 11.9699C22.0792 11.6694 21.6337 11.6694 21.3366 11.9699L19.0594 14.2738H16.6832L21.1386 9.76628H25.5446C25.9406 9.76628 26.2871 9.41569 26.2871 9.01502C26.2871 8.61436 25.9406 8.26377 25.5446 8.26377H22.6238L25.3465 5.50918C25.6436 5.20868 25.6436 4.75793 25.3465 4.45743C25.0495 4.15693 24.604 4.15693 24.3069 4.45743L21.5842 7.21202V4.25709C21.5347 3.80634 21.2376 3.50584 20.7921 3.50584C20.3465 3.50584 20.0495 3.85643 20.0495 4.25709V8.71452L15.5941 13.222V10.818L17.8713 8.51419C18.1683 8.21369 18.1683 7.76294 17.8713 7.46244C17.5743 7.16194 17.1287 7.16194 16.8317 7.46244L15.5941 8.71452V6.3606L18.7129 3.20534C19.0099 2.90484 19.0099 2.45409 18.7129 2.15359C18.4158 1.85309 17.9703 1.85309 17.6733 2.15359L15.5941 4.25709V0.751252C15.5941 0.350584 15.2475 0 14.8515 0C14.4554 0 14.1089 0.350584 14.1089 0.751252V4.20701L12.0297 2.10351C11.7327 1.803 11.2871 1.803 10.9901 2.10351C10.6931 2.40401 10.6931 2.85476 10.9901 3.15526L14.1089 6.31052V8.66444L12.8713 7.41235C12.5743 7.11185 12.1287 7.11185 11.8317 7.41235C11.5347 7.71285 11.5347 8.16361 11.8317 8.46411L14.1089 10.7679V13.172L9.65347 8.66444V4.20701C9.65347 3.80634 9.30693 3.50584 8.91089 3.50584C8.51485 3.50584 8.16832 3.85643 8.16832 4.25709V7.21202L5.44554 4.45743C5.14851 4.15693 4.70297 4.15693 4.40594 4.45743C4.10891 4.75793 4.10891 5.20868 4.40594 5.50918L7.12871 8.26377H4.20792C3.76238 8.26377 3.46535 8.56427 3.46535 9.01502C3.46535 9.46578 3.81188 9.76628 4.20792 9.76628H8.61386L13.0693 14.2738H10.6931L8.41584 11.9699C8.11881 11.6694 7.67327 11.6694 7.37624 11.9699C7.07921 12.2705 7.07921 12.7212 7.37624 13.0217L8.61386 14.2738H6.28713L3.16832 11.1185C2.87129 10.818 2.42574 10.818 2.12871 11.1185C1.83168 11.419 1.83168 11.8698 2.12871 12.1703L4.20792 14.2738H0.742574C0.346535 14.2738 0 14.6244 0 15.025C0 15.4257 0.346535 15.7763 0.742574 15.7763H4.15842L2.07921 17.8798C1.78218 18.1803 1.78218 18.6311 2.07921 18.9316C2.22772 19.0818 2.42574 19.1319 2.62376 19.1319C2.82178 19.1319 3.0198 19.0818 3.16832 18.9316L6.28713 15.7763H8.61386L7.32673 17.0284C7.0297 17.3289 7.0297 17.7796 7.32673 18.0801C7.47525 18.2304 7.67327 18.2805 7.87129 18.2805C8.06931 18.2805 8.26733 18.2304 8.41584 18.0801L10.6931 15.7763H13.0693L8.61386 20.2838H4.20792C3.76238 20.2838 3.46535 20.6344 3.46535 21.0351C3.46535 21.4357 3.81188 21.7863 4.20792 21.7863H7.12871L4.40594 24.5409C4.10891 24.8414 4.10891 25.2922 4.40594 25.5927C4.55446 25.7429 4.75248 25.793 4.9505 25.793C5.14851 25.793 5.34653 25.7429 5.49505 25.5927L8.21782 22.8381V25.793C8.21782 26.1937 8.56436 26.5442 8.9604 26.5442C9.35644 26.5442 9.70297 26.1937 9.70297 25.793V21.3356L14.1584 16.828V19.2321L11.8317 21.5359C11.5347 21.8364 11.5347 22.2871 11.8317 22.5876C11.9802 22.7379 12.1782 22.788 12.3762 22.788C12.5743 22.788 12.7723 22.7379 12.9208 22.5876L14.1584 21.3356V23.6895L11.0396 26.8447C10.7426 27.1452 10.7426 27.596 11.0396 27.8965C11.1881 28.0467 11.3861 28.0968 11.5842 28.0968C11.7822 28.0968 11.9802 28.0467 12.1287 27.8965L14.2079 25.793V29.2487C14.2079 29.6494 14.5545 30 14.9505 30C15.3465 30 15.6931 29.6494 15.6931 29.2487V25.793L17.7723 27.8965C17.9208 28.0467 18.1188 28.0968 18.3168 28.0968C18.5149 28.0968 18.7129 28.0467 18.8614 27.8965C19.1584 27.596 19.1584 27.1452 18.8614 26.8447L15.7426 23.6895V21.3356L16.9802 22.5876C17.1287 22.7379 17.3267 22.788 17.5248 22.788C17.7228 22.788 17.9208 22.7379 18.0693 22.5876C18.3663 22.2871 18.3663 21.8364 18.0693 21.5359L15.7921 19.2321V16.828L20.2475 21.3356V25.793C20.2475 26.1937 20.5941 26.5442 20.9901 26.5442C21.3861 26.5442 21.7327 26.1937 21.7327 25.793V22.8381L24.4554 25.5927C24.604 25.7429 24.802 25.793 25 25.793C25.198 25.793 25.396 25.7429 25.5446 25.5927C25.8416 25.2922 25.8416 24.8414 25.5446 24.5409L22.8218 21.7863H25.7426C26.1386 21.7863 26.4851 21.4357 26.4851 21.0351C26.4851 20.6344 26.1386 20.2838 25.7426 20.2838H21.3366L16.8812 15.7763H19.2574L21.5347 18.0801C21.6832 18.2304 21.8812 18.2805 22.0792 18.2805C22.2772 18.2805 22.4752 18.2304 22.6238 18.0801C22.9208 17.7796 22.9208 17.3289 22.6238 17.0284L21.3861 15.7763H23.7129L26.8317 18.9316C26.9802 19.0818 27.1782 19.1319 27.3762 19.1319C27.5743 19.1319 27.7723 19.0818 27.9208 18.9316C28.2178 18.6311 28.2178 18.1803 27.9208 17.8798L25.8416 15.7763H29.2574C29.6535 15.7763 30 15.4257 30 15.025C30 14.6244 29.3564 14.2738 28.9604 14.2738" fill="#75D6FF"/>
</svg>
